STARTFONT 2.1
FONT -Monotype-Arial-Regular-I-Normal--14-100-100-100-P-67-iso8859-2
SIZE 10 100 100
FONTBOUNDINGBOX 18 16 -3 -3

STARTPROPERTIES 24
FOUNDRY "Monotype"
FAMILY_NAME "Arial"
WEIGHT_NAME "Regular"
SLANT "I"
SETWIDTH_NAME "Normal"
ADD_STYLE_NAME ""
PIXEL_SIZE 14
POINT_SIZE 100
RESOLUTION_X 100
RESOLUTION_Y 100
SPACING "P"
AVERAGE_WIDTH 67
CHARSET_REGISTRY "iso8859"
CHARSET_ENCODING "2"
FACE_NAME "Arial Italic ISO Latin2"
_DEC_DEVICE_FONTNAMES "PS=arial-it-lat2"
COPYRIGHT "Copyright (c) 1994 Monotype Typography Ltd."
CAP_HEIGHT 11
X_HEIGHT 8
WEIGHT 10
QUAD_WIDTH 8
DEFAULT_CHAR 160
FONT_DESCENT 3
FONT_ASCENT 13
ENDPROPERTIES

CHARS 191

STARTCHAR space
ENCODING 32
SWIDTH 278 0
DWIDTH 4 0
BBX 0 0 0 0
BITMAP
ENDCHAR

STARTCHAR exclam
ENCODING 33
SWIDTH 278 0
DWIDTH 4 0
BBX 3 10 1 0
BITMAP
20
20
20
60
40
40
40
40
00
80
ENDCHAR

STARTCHAR quotedbl
ENCODING 34
SWIDTH 355 0
DWIDTH 5 0
BBX 4 4 2 6
BITMAP
50
50
A0
A0
ENDCHAR

STARTCHAR numbersign
ENCODING 35
SWIDTH 556 0
DWIDTH 8 0
BBX 8 10 0 0
BITMAP
12
12
12
7F
24
24
FE
48
48
48
ENDCHAR

STARTCHAR dollar
ENCODING 36
SWIDTH 556 0
DWIDTH 8 0
BBX 7 12 1 -1
BITMAP
08
3C
4A
4A
50
30
18
14
A4
A4
78
20
ENDCHAR

STARTCHAR percent
ENCODING 37
SWIDTH 889 0
DWIDTH 12 0
BBX 10 10 2 0
BITMAP
7080
9100
9200
9400
EC00
19C0
1240
2240
4240
8380
ENDCHAR

STARTCHAR ampersand
ENCODING 38
SWIDTH 667 0
DWIDTH 9 0
BBX 7 10 1 0
BITMAP
1C
24
24
28
30
50
8A
84
CE
72
ENDCHAR

STARTCHAR quoteright
ENCODING 39
SWIDTH 222 0
DWIDTH 3 0
BBX 3 3 1 7
BITMAP
60
40
80
ENDCHAR

STARTCHAR parenleft
ENCODING 40
SWIDTH 333 0
DWIDTH 5 0
BBX 5 13 1 -3
BITMAP
18
20
40
40
80
80
80
80
80
80
80
40
20
ENDCHAR

STARTCHAR parenright
ENCODING 41
SWIDTH 333 0
DWIDTH 5 0
BBX 5 13 -1 -3
BITMAP
20
10
08
08
08
08
08
08
08
10
10
20
C0
ENDCHAR

STARTCHAR asterisk
ENCODING 42
SWIDTH 389 0
DWIDTH 5 0
BBX 4 4 2 6
BITMAP
40
F0
60
B0
ENDCHAR

STARTCHAR plus
ENCODING 43
SWIDTH 584 0
DWIDTH 8 0
BBX 7 7 1 1
BITMAP
10
10
10
FE
10
10
10
ENDCHAR

STARTCHAR comma
ENCODING 44
SWIDTH 278 0
DWIDTH 4 0
BBX 3 3 0 -2
BITMAP
60
40
80
ENDCHAR

STARTCHAR minus
ENCODING 45
SWIDTH 584 0
DWIDTH 8 0
BBX 7 1 1 4
BITMAP
FE
ENDCHAR

STARTCHAR period
ENCODING 46
SWIDTH 278 0
DWIDTH 4 0
BBX 2 1 1 0
BITMAP
C0
ENDCHAR

STARTCHAR slash
ENCODING 47
SWIDTH 278 0
DWIDTH 4 0
BBX 3 10 1 0
BITMAP
20
20
20
40
40
40
40
80
80
80
ENDCHAR

STARTCHAR zero
ENCODING 48
SWIDTH 556 0
DWIDTH 8 0
BBX 7 10 1 0
BITMAP
1C
22
42
42
82
82
84
84
88
70
ENDCHAR

STARTCHAR one
ENCODING 49
SWIDTH 556 0
DWIDTH 8 0
BBX 4 10 2 0
BITMAP
10
30
D0
10
20
20
20
40
40
40
ENDCHAR

STARTCHAR two
ENCODING 50
SWIDTH 556 0
DWIDTH 8 0
BBX 7 10 1 0
BITMAP
1C
26
42
02
04
08
10
20
40
FC
ENDCHAR

STARTCHAR three
ENCODING 51
SWIDTH 556 0
DWIDTH 8 0
BBX 6 10 1 0
BITMAP
38
44
84
04
38
08
04
04
88
70
ENDCHAR

STARTCHAR four
ENCODING 52
SWIDTH 556 0
DWIDTH 8 0
BBX 7 10 1 0
BITMAP
02
04
0C
14
28
48
FE
10
10
10
ENDCHAR

STARTCHAR five
ENCODING 53
SWIDTH 556 0
DWIDTH 8 0
BBX 7 10 1 0
BITMAP
3E
20
40
78
44
04
04
84
88
70
ENDCHAR

STARTCHAR six
ENCODING 54
SWIDTH 556 0
DWIDTH 8 0
BBX 7 10 1 0
BITMAP
1C
22
40
78
84
84
84
84
88
70
ENDCHAR

STARTCHAR seven
ENCODING 55
SWIDTH 556 0
DWIDTH 8 0
BBX 6 10 2 0
BITMAP
FC
08
10
10
20
20
20
40
40
40
ENDCHAR

STARTCHAR eight
ENCODING 56
SWIDTH 556 0
DWIDTH 8 0
BBX 7 10 1 0
BITMAP
1C
22
42
42
3C
44
84
84
88
70
ENDCHAR

STARTCHAR nine
ENCODING 57
SWIDTH 556 0
DWIDTH 8 0
BBX 7 10 1 0
BITMAP
1C
22
42
42
42
42
3C
04
88
70
ENDCHAR

STARTCHAR colon
ENCODING 58
SWIDTH 278 0
DWIDTH 4 0
BBX 3 7 1 0
BITMAP
60
00
00
00
00
00
C0
ENDCHAR

STARTCHAR semicolon
ENCODING 59
SWIDTH 278 0
DWIDTH 4 0
BBX 4 9 0 -2
BITMAP
30
00
00
00
00
00
60
40
80
ENDCHAR

STARTCHAR less
ENCODING 60
SWIDTH 584 0
DWIDTH 8 0
BBX 7 6 1 2
BITMAP
06
18
E0
E0
18
06
ENDCHAR

STARTCHAR equal
ENCODING 61
SWIDTH 584 0
DWIDTH 8 0
BBX 7 4 1 3
BITMAP
FE
00
00
FE
ENDCHAR

STARTCHAR greater
ENCODING 62
SWIDTH 584 0
DWIDTH 8 0
BBX 7 6 1 2
BITMAP
C0
30
0E
0E
30
C0
ENDCHAR

STARTCHAR question
ENCODING 63
SWIDTH 556 0
DWIDTH 8 0
BBX 6 10 2 0
BITMAP
38
44
84
0C
18
30
60
40
00
C0
ENDCHAR

STARTCHAR at
ENCODING 64
SWIDTH 1015 0
DWIDTH 14 0
BBX 13 13 1 -3
BITMAP
0F80
3060
4010
4750
88C8
98C8
9088
9098
9190
4EE0
4008
3030
0FC0
ENDCHAR

STARTCHAR A
ENCODING 65
SWIDTH 667 0
DWIDTH 9 0
BBX 9 10 0 0
BITMAP
0600
0A00
0900
1100
1100
2100
3F80
4080
4080
8080
ENDCHAR

STARTCHAR B
ENCODING 66
SWIDTH 667 0
DWIDTH 9 0
BBX 8 10 1 0
BITMAP
3E
21
21
42
7C
42
41
81
82
FC
ENDCHAR

STARTCHAR C
ENCODING 67
SWIDTH 722 0
DWIDTH 10 0
BBX 9 10 1 0
BITMAP
1E00
2100
4080
4000
8000
8000
8000
8100
4200
3C00
ENDCHAR

STARTCHAR D
ENCODING 68
SWIDTH 722 0
DWIDTH 10 0
BBX 9 10 1 0
BITMAP
3E00
2100
2080
4080
4080
4080
8100
8100
8200
FC00
ENDCHAR

STARTCHAR E
ENCODING 69
SWIDTH 667 0
DWIDTH 9 0
BBX 9 10 1 0
BITMAP
3F80
2000
2000
4000
7F00
4000
4000
8000
8000
FE00
ENDCHAR

STARTCHAR F
ENCODING 70
SWIDTH 611 0
DWIDTH 9 0
BBX 8 10 1 0
BITMAP
3F
20
20
40
7E
40
40
80
80
80
ENDCHAR

STARTCHAR G
ENCODING 71
SWIDTH 778 0
DWIDTH 11 0
BBX 9 10 2 0
BITMAP
1F00
2080
4080
4000
8000
8780
8100
8100
4200
3C00
ENDCHAR

STARTCHAR H
ENCODING 72
SWIDTH 722 0
DWIDTH 10 0
BBX 9 10 1 0
BITMAP
2080
2080
2080
4100
7F00
4100
4100
8200
8200
8200
ENDCHAR

STARTCHAR I
ENCODING 73
SWIDTH 278 0
DWIDTH 4 0
BBX 3 10 1 0
BITMAP
20
20
20
40
40
40
40
80
80
80
ENDCHAR

STARTCHAR J
ENCODING 74
SWIDTH 500 0
DWIDTH 8 0
BBX 7 10 1 0
BITMAP
02
02
02
04
04
04
08
88
88
70
ENDCHAR

STARTCHAR K
ENCODING 75
SWIDTH 667 0
DWIDTH 9 0
BBX 8 10 1 0
BITMAP
21
22
24
48
50
70
48
84
82
82
ENDCHAR

STARTCHAR L
ENCODING 76
SWIDTH 556 0
DWIDTH 8 0
BBX 6 10 1 0
BITMAP
20
20
20
40
40
40
40
80
80
FC
ENDCHAR

STARTCHAR M
ENCODING 77
SWIDTH 833 0
DWIDTH 12 0
BBX 11 10 1 0
BITMAP
2020
2060
70A0
5140
5140
5240
9440
9480
9880
9080
ENDCHAR

STARTCHAR N
ENCODING 78
SWIDTH 722 0
DWIDTH 10 0
BBX 9 10 1 0
BITMAP
2080
2080
3080
5100
4900
4900
4600
8600
8200
8200
ENDCHAR

STARTCHAR O
ENCODING 79
SWIDTH 778 0
DWIDTH 11 0
BBX 9 10 2 0
BITMAP
1E00
2100
4080
4080
8080
8080
8100
8100
4200
3C00
ENDCHAR

STARTCHAR P
ENCODING 80
SWIDTH 667 0
DWIDTH 9 0
BBX 9 10 1 0
BITMAP
3F00
2080
2080
4080
4100
7E00
4000
8000
8000
8000
ENDCHAR

STARTCHAR Q
ENCODING 81
SWIDTH 778 0
DWIDTH 11 0
BBX 9 11 2 -1
BITMAP
1E00
2100
4080
4080
8080
8080
8100
8900
4600
3E00
0100
ENDCHAR

STARTCHAR R
ENCODING 82
SWIDTH 722 0
DWIDTH 10 0
BBX 9 10 1 0
BITMAP
3F00
2080
2080
4100
7E00
4800
4400
8200
8200
8100
ENDCHAR

STARTCHAR S
ENCODING 83
SWIDTH 667 0
DWIDTH 9 0
BBX 8 10 1 0
BITMAP
1E
21
41
60
38
0C
02
82
84
78
ENDCHAR

STARTCHAR T
ENCODING 84
SWIDTH 611 0
DWIDTH 8 0
BBX 7 10 2 0
BITMAP
FE
10
10
20
20
20
20
40
40
40
ENDCHAR

STARTCHAR U
ENCODING 85
SWIDTH 722 0
DWIDTH 10 0
BBX 9 10 1 0
BITMAP
2080
2080
2080
4100
4100
4100
8200
8200
8400
7800
ENDCHAR

STARTCHAR V
ENCODING 86
SWIDTH 667 0
DWIDTH 9 0
BBX 7 10 3 0
BITMAP
82
84
84
88
90
90
A0
C0
C0
80
ENDCHAR

STARTCHAR W
ENCODING 87
SWIDTH 944 0
DWIDTH 13 0
BBX 13 10 2 0
BITMAP
8208
8610
8610
8A20
9240
9240
A280
C300
C300
8200
ENDCHAR

STARTCHAR X
ENCODING 88
SWIDTH 667 0
DWIDTH 9 0
BBX 10 10 1 0
BITMAP
4040
2080
2100
1200
0C00
0800
1400
2400
4200
8100
ENDCHAR

STARTCHAR Y
ENCODING 89
SWIDTH 667 0
DWIDTH 9 0
BBX 8 10 2 0
BITMAP
81
42
44
24
28
10
10
20
20
20
ENDCHAR

STARTCHAR Z
ENCODING 90
SWIDTH 611 0
DWIDTH 9 0
BBX 9 10 0 0
BITMAP
3F80
0080
0100
0200
0400
0800
1000
2000
4000
FF00
ENDCHAR

STARTCHAR bracketleft
ENCODING 91
SWIDTH 278 0
DWIDTH 4 0
BBX 5 13 0 -3
BITMAP
38
20
20
20
40
40
40
40
40
80
80
80
E0
ENDCHAR

STARTCHAR backslash
ENCODING 92
SWIDTH 278 0
DWIDTH 4 0
BBX 3 10 1 0
BITMAP
80
80
80
40
40
40
40
20
20
20
ENDCHAR

STARTCHAR bracketright
ENCODING 93
SWIDTH 278 0
DWIDTH 4 0
BBX 5 13 0 -3
BITMAP
38
08
08
08
10
10
10
10
20
20
20
20
E0
ENDCHAR

STARTCHAR asciicircum
ENCODING 94
SWIDTH 469 0
DWIDTH 7 0
BBX 7 5 0 5
BITMAP
10
38
6C
44
82
ENDCHAR

STARTCHAR underscore
ENCODING 95
SWIDTH 556 0
DWIDTH 8 0
BBX 8 1 0 -2
BITMAP
FF
ENDCHAR

STARTCHAR quoteleft
ENCODING 96
SWIDTH 222 0
DWIDTH 3 0
BBX 3 3 2 7
BITMAP
20
40
C0
ENDCHAR

STARTCHAR a
ENCODING 97
SWIDTH 556 0
DWIDTH 8 0
BBX 7 7 1 0
BITMAP
3C
42
02
7E
84
8C
76
ENDCHAR

STARTCHAR b
ENCODING 98
SWIDTH 556 0
DWIDTH 8 0
BBX 7 10 1 0
BITMAP
20
20
20
5C
62
42
42
84
C4
B8
ENDCHAR

STARTCHAR c
ENCODING 99
SWIDTH 500 0
DWIDTH 7 0
BBX 6 7 1 0
BITMAP
38
44
40
80
80
88
70
ENDCHAR

STARTCHAR d
ENCODING 100
SWIDTH 556 0
DWIDTH 8 0
BBX 8 10 1 0
BITMAP
01
01
02
3A
46
42
84
84
8C
74
ENDCHAR

STARTCHAR e
ENCODING 101
SWIDTH 556 0
DWIDTH 8 0
BBX 7 7 1 0
BITMAP
3C
42
42
FC
80
84
78
ENDCHAR

STARTCHAR f
ENCODING 102
SWIDTH 278 0
DWIDTH 4 0
BBX 5 10 1 0
BITMAP
18
20
40
F0
40
40
80
80
80
80
ENDCHAR

STARTCHAR g
ENCODING 103
SWIDTH 556 0
DWIDTH 8 0
BBX 8 10 0 -3
BITMAP
1D
23
21
42
42
42
3C
04
88
70
ENDCHAR

STARTCHAR h
ENCODING 104
SWIDTH 556 0
DWIDTH 8 0
BBX 7 10 1 0
BITMAP
20
20
20
5C
62
42
42
84
84
84
ENDCHAR

STARTCHAR i
ENCODING 105
SWIDTH 222 0
DWIDTH 3 0
BBX 3 10 1 0
BITMAP
20
00
00
40
40
40
40
80
80
80
ENDCHAR

STARTCHAR j
ENCODING 106
SWIDTH 222 0
DWIDTH 3 0
BBX 6 13 -2 -3
BITMAP
0C
00
00
08
08
08
10
10
10
20
20
20
C0
ENDCHAR

STARTCHAR k
ENCODING 107
SWIDTH 500 0
DWIDTH 7 0
BBX 6 10 1 0
BITMAP
20
20
20
44
48
70
E0
90
88
84
ENDCHAR

STARTCHAR l
ENCODING 108
SWIDTH 222 0
DWIDTH 3 0
BBX 3 10 1 0
BITMAP
20
20
20
40
40
40
40
80
80
80
ENDCHAR

STARTCHAR m
ENCODING 109
SWIDTH 833 0
DWIDTH 12 0
BBX 10 7 1 0
BITMAP
5B80
6440
4440
4440
8880
8880
8880
ENDCHAR

STARTCHAR n
ENCODING 110
SWIDTH 556 0
DWIDTH 8 0
BBX 7 7 1 0
BITMAP
5C
62
42
82
84
84
84
ENDCHAR

STARTCHAR o
ENCODING 111
SWIDTH 556 0
DWIDTH 8 0
BBX 7 7 1 0
BITMAP
3C
42
42
82
84
84
78
ENDCHAR

STARTCHAR p
ENCODING 112
SWIDTH 556 0
DWIDTH 8 0
BBX 8 10 0 -3
BITMAP
2E
31
21
21
42
62
5C
40
80
80
ENDCHAR

STARTCHAR q
ENCODING 113
SWIDTH 556 0
DWIDTH 8 0
BBX 7 10 1 -3
BITMAP
3A
46
42
82
84
84
7C
08
08
08
ENDCHAR

STARTCHAR r
ENCODING 114
SWIDTH 333 0
DWIDTH 5 0
BBX 5 7 1 0
BITMAP
58
60
40
C0
80
80
80
ENDCHAR

STARTCHAR s
ENCODING 115
SWIDTH 500 0
DWIDTH 7 0
BBX 7 7 1 0
BITMAP
3C
42
40
38
04
84
78
ENDCHAR

STARTCHAR t
ENCODING 116
SWIDTH 278 0
DWIDTH 4 0
BBX 4 10 1 0
BITMAP
20
20
20
F0
40
40
80
80
80
60
ENDCHAR

STARTCHAR u
ENCODING 117
SWIDTH 556 0
DWIDTH 8 0
BBX 7 7 1 0
BITMAP
42
42
42
84
84
8C
74
ENDCHAR

STARTCHAR v
ENCODING 118
SWIDTH 500 0
DWIDTH 7 0
BBX 5 7 2 0
BITMAP
88
88
90
A0
A0
C0
80
ENDCHAR

STARTCHAR w
ENCODING 119
SWIDTH 722 0
DWIDTH 10 0
BBX 9 7 2 0
BITMAP
8880
8900
9900
AA00
AA00
CC00
8800
ENDCHAR

STARTCHAR x
ENCODING 120
SWIDTH 500 0
DWIDTH 7 0
BBX 7 7 0 0
BITMAP
42
24
18
10
28
44
82
ENDCHAR

STARTCHAR y
ENCODING 121
SWIDTH 500 0
DWIDTH 7 0
BBX 7 10 0 -3
BITMAP
22
22
24
14
18
18
10
30
20
C0
ENDCHAR

STARTCHAR z
ENCODING 122
SWIDTH 500 0
DWIDTH 7 0
BBX 7 7 1 0
BITMAP
7E
04
08
10
20
40
FC
ENDCHAR

STARTCHAR braceleft
ENCODING 123
SWIDTH 334 0
DWIDTH 5 0
BBX 6 13 0 -3
BITMAP
0C
10
10
10
20
20
C0
40
40
40
40
40
20
ENDCHAR

STARTCHAR bar
ENCODING 124
SWIDTH 260 0
DWIDTH 4 0
BBX 1 13 2 -3
BITMAP
80
80
80
80
80
80
80
80
80
80
80
80
80
ENDCHAR

STARTCHAR braceright
ENCODING 125
SWIDTH 334 0
DWIDTH 5 0
BBX 6 13 0 -3
BITMAP
10
08
08
08
08
08
0C
10
10
20
20
20
C0
ENDCHAR

STARTCHAR asciitilde
ENCODING 126
SWIDTH 584 0
DWIDTH 8 0
BBX 7 2 1 4
BITMAP
72
8C
ENDCHAR

STARTCHAR space
ENCODING 160
SWIDTH 278 0
DWIDTH 4 0
BBX 0 0 0 0
BITMAP
ENDCHAR

STARTCHAR Aogonek
ENCODING 161
SWIDTH 667 0
DWIDTH 9 0
BBX 11 12 0 -2
BITMAP
0600
0A00
0900
1100
1100
2100
3F80
4080
4080
8080
0080
0060
ENDCHAR

STARTCHAR breve
ENCODING 162
SWIDTH 333 0
DWIDTH 5 0
BBX 5 2 2 8
BITMAP
88
70
ENDCHAR

STARTCHAR Lslash
ENCODING 163
SWIDTH 556 0
DWIDTH 8 0
BBX 6 10 1 0
BITMAP
20
30
20
40
40
C0
40
80
80
FC
ENDCHAR

STARTCHAR currency
ENCODING 164
SWIDTH 556 0
DWIDTH 8 0
BBX 6 6 1 2
BITMAP
B4
48
84
84
48
B4
ENDCHAR

STARTCHAR Lcaron
ENCODING 165
SWIDTH 556 0
DWIDTH 8 0
BBX 6 10 1 0
BITMAP
24
24
28
40
40
40
40
80
80
FC
ENDCHAR

STARTCHAR Sacute
ENCODING 166
SWIDTH 667 0
DWIDTH 9 0
BBX 8 13 1 0
BITMAP
04
08
00
1E
21
41
60
38
0C
02
82
84
78
ENDCHAR

STARTCHAR section
ENCODING 167
SWIDTH 556 0
DWIDTH 8 0
BBX 6 13 1 -3
BITMAP
3C
44
40
60
90
88
84
44
24
18
08
88
F0
ENDCHAR

STARTCHAR dieresis
ENCODING 168
SWIDTH 333 0
DWIDTH 5 0
BBX 4 1 2 8
BITMAP
90
ENDCHAR

STARTCHAR Scaron
ENCODING 169
SWIDTH 667 0
DWIDTH 9 0
BBX 8 13 1 0
BITMAP
12
0C
00
1E
21
41
60
38
0C
02
82
84
78
ENDCHAR

STARTCHAR Scommaaccent
ENCODING 170
SWIDTH 667 0
DWIDTH 9 0
BBX 8 13 1 -3
BITMAP
1E
21
41
60
38
0C
02
82
84
78
00
10
20
ENDCHAR

STARTCHAR Tcaron
ENCODING 171
SWIDTH 611 0
DWIDTH 8 0
BBX 7 13 2 0
BITMAP
24
18
00
FE
10
10
20
20
20
20
40
40
40
ENDCHAR

STARTCHAR Zacute
ENCODING 172
SWIDTH 611 0
DWIDTH 9 0
BBX 9 13 0 0
BITMAP
0200
0400
0000
3F80
0080
0100
0200
0400
0800
1000
2000
4000
FF00
ENDCHAR

STARTCHAR hyphen
ENCODING 173
SWIDTH 333 0
DWIDTH 5 0
BBX 4 1 1 3
BITMAP
F0
ENDCHAR

STARTCHAR Zcaron
ENCODING 174
SWIDTH 611 0
DWIDTH 9 0
BBX 9 13 0 0
BITMAP
0900
0600
0000
3F80
0080
0100
0200
0400
0800
1000
2000
4000
FF00
ENDCHAR

STARTCHAR Zdotaccent
ENCODING 175
SWIDTH 611 0
DWIDTH 9 0
BBX 9 12 0 0
BITMAP
0400
0000
3F80
0080
0100
0200
0400
0800
1000
2000
4000
FF00
ENDCHAR

STARTCHAR degree
ENCODING 176
SWIDTH 400 0
DWIDTH 6 0
BBX 4 4 2 6
BITMAP
60
90
90
60
ENDCHAR

STARTCHAR aogonek
ENCODING 177
SWIDTH 556 0
DWIDTH 8 0
BBX 8 9 1 -2
BITMAP
3C
42
02
7E
84
8C
76
04
03
ENDCHAR

STARTCHAR ogonek
ENCODING 178
SWIDTH 333 0
DWIDTH 5 0
BBX 3 2 1 -2
BITMAP
80
60
ENDCHAR

STARTCHAR lslash
ENCODING 179
SWIDTH 222 0
DWIDTH 3 0
BBX 4 10 1 0
BITMAP
20
30
20
40
40
C0
40
80
80
80
ENDCHAR

STARTCHAR acute
ENCODING 180
SWIDTH 333 0
DWIDTH 5 0
BBX 2 2 3 8
BITMAP
40
80
ENDCHAR

STARTCHAR lcaron
ENCODING 181
SWIDTH 281 0
DWIDTH 3 0
BBX 5 10 1 0
BITMAP
28
28
30
40
40
40
40
80
80
80
ENDCHAR

STARTCHAR sacute
ENCODING 182
SWIDTH 500 0
DWIDTH 7 0
BBX 7 10 1 0
BITMAP
04
08
00
3C
42
40
38
04
84
78
ENDCHAR

STARTCHAR caron
ENCODING 183
SWIDTH 333 0
DWIDTH 5 0
BBX 4 2 2 8
BITMAP
90
60
ENDCHAR

STARTCHAR commaaccent
ENCODING 184
SWIDTH 333 0
DWIDTH 5 0
BBX 2 2 1 -3
BITMAP
40
80
ENDCHAR

STARTCHAR scaron
ENCODING 185
SWIDTH 500 0
DWIDTH 7 0
BBX 7 10 1 0
BITMAP
24
18
00
3C
42
40
38
04
84
78
ENDCHAR

STARTCHAR scommaaccent
ENCODING 186
SWIDTH 500 0
DWIDTH 7 0
BBX 7 10 1 -3
BITMAP
3C
42
40
38
04
84
78
00
20
40
ENDCHAR

STARTCHAR tcaron
ENCODING 187
SWIDTH 354 0
DWIDTH 4 0
BBX 5 11 1 0
BITMAP
08
28
30
20
F0
40
40
80
80
80
60
ENDCHAR

STARTCHAR zacute
ENCODING 188
SWIDTH 500 0
DWIDTH 7 0
BBX 7 10 1 0
BITMAP
04
08
00
7E
04
08
10
20
40
FC
ENDCHAR

STARTCHAR hungarumlaut
ENCODING 189
SWIDTH 333 0
DWIDTH 5 0
BBX 5 2 0 8
BITMAP
48
90
ENDCHAR

STARTCHAR zcaron
ENCODING 190
SWIDTH 500 0
DWIDTH 7 0
BBX 7 10 1 0
BITMAP
24
18
00
7E
04
08
10
20
40
FC
ENDCHAR

STARTCHAR zdotaccent
ENCODING 191
SWIDTH 500 0
DWIDTH 7 0
BBX 7 9 1 0
BITMAP
08
00
7E
04
08
10
20
40
FC
ENDCHAR

STARTCHAR Racute
ENCODING 192
SWIDTH 722 0
DWIDTH 10 0
BBX 9 13 1 0
BITMAP
0200
0400
0000
3F00
2080
2080
4100
7E00
4800
4400
8200
8200
8100
ENDCHAR

STARTCHAR Aacute
ENCODING 193
SWIDTH 667 0
DWIDTH 9 0
BBX 9 13 0 0
BITMAP
0100
0200
0000
0600
0A00
0900
1100
1100
2100
3F80
4080
4080
8080
ENDCHAR

STARTCHAR Acircumflex
ENCODING 194
SWIDTH 667 0
DWIDTH 9 0
BBX 9 13 0 0
BITMAP
0600
0900
0000
0600
0A00
0900
1100
1100
2100
3F80
4080
4080
8080
ENDCHAR

STARTCHAR Abreve
ENCODING 195
SWIDTH 667 0
DWIDTH 9 0
BBX 9 13 0 0
BITMAP
0880
0700
0000
0600
0A00
0900
1100
1100
2100
3F80
4080
4080
8080
ENDCHAR

STARTCHAR Adieresis
ENCODING 196
SWIDTH 667 0
DWIDTH 9 0
BBX 9 12 0 0
BITMAP
0900
0000
0600
0A00
0900
1100
1100
2100
3F80
4080
4080
8080
ENDCHAR

STARTCHAR Lacute
ENCODING 197
SWIDTH 556 0
DWIDTH 8 0
BBX 6 13 1 0
BITMAP
08
10
00
20
20
20
40
40
40
40
80
80
FC
ENDCHAR

STARTCHAR Cacute
ENCODING 198
SWIDTH 722 0
DWIDTH 10 0
BBX 9 13 1 0
BITMAP
0200
0400
0000
1E00
2100
4080
4000
8000
8000
8000
8100
4200
3C00
ENDCHAR

STARTCHAR Ccedilla
ENCODING 199
SWIDTH 722 0
DWIDTH 10 0
BBX 9 13 1 -3
BITMAP
1E00
2100
4080
4000
8000
8000
8000
8100
4200
3C00
1000
0800
3000
ENDCHAR

STARTCHAR Ccaron
ENCODING 200
SWIDTH 722 0
DWIDTH 10 0
BBX 9 13 1 0
BITMAP
1200
0C00
0000
1E00
2100
4080
4000
8000
8000
8000
8100
4200
3C00
ENDCHAR

STARTCHAR Eacute
ENCODING 201
SWIDTH 667 0
DWIDTH 9 0
BBX 9 13 1 0
BITMAP
0200
0400
0000
3F80
2000
2000
4000
7F00
4000
4000
8000
8000
FE00
ENDCHAR

STARTCHAR Eogonek
ENCODING 202
SWIDTH 667 0
DWIDTH 9 0
BBX 9 12 1 -2
BITMAP
3F80
2000
2000
4000
7F00
4000
4000
8000
8000
FE00
0400
0300
ENDCHAR

STARTCHAR Edieresis
ENCODING 203
SWIDTH 667 0
DWIDTH 9 0
BBX 9 12 1 0
BITMAP
0900
0000
3F80
2000
2000
4000
7F00
4000
4000
8000
8000
FE00
ENDCHAR

STARTCHAR Ecaron
ENCODING 204
SWIDTH 667 0
DWIDTH 9 0
BBX 9 13 1 0
BITMAP
0900
0600
0000
3F80
2000
2000
4000
7F00
4000
4000
8000
8000
FE00
ENDCHAR

STARTCHAR Iacute
ENCODING 205
SWIDTH 278 0
DWIDTH 4 0
BBX 4 13 1 0
BITMAP
10
20
00
20
20
20
40
40
40
40
80
80
80
ENDCHAR

STARTCHAR Icircumflex
ENCODING 206
SWIDTH 278 0
DWIDTH 4 0
BBX 5 13 1 0
BITMAP
30
48
00
20
20
20
40
40
40
40
80
80
80
ENDCHAR

STARTCHAR Dcaron
ENCODING 207
SWIDTH 722 0
DWIDTH 10 0
BBX 9 13 1 0
BITMAP
1200
0C00
0000
3E00
2100
2080
4080
4080
4080
8100
8100
8200
FC00
ENDCHAR

STARTCHAR Dcroat
ENCODING 208
SWIDTH 722 0
DWIDTH 10 0
BBX 9 10 1 0
BITMAP
3E00
2100
2080
4080
F080
4080
8100
8100
8200
FC00
ENDCHAR

STARTCHAR Nacute
ENCODING 209
SWIDTH 722 0
DWIDTH 10 0
BBX 9 13 1 0
BITMAP
0200
0400
0000
2080
2080
3080
5100
4900
4900
4600
8600
8200
8200
ENDCHAR

STARTCHAR Ncaron
ENCODING 210
SWIDTH 722 0
DWIDTH 10 0
BBX 9 13 1 0
BITMAP
0900
0600
0000
2080
2080
3080
5100
4900
4900
4600
8600
8200
8200
ENDCHAR

STARTCHAR Oacute
ENCODING 211
SWIDTH 778 0
DWIDTH 11 0
BBX 9 13 2 0
BITMAP
0200
0400
0000
1E00
2100
4080
4080
8080
8080
8100
8100
4200
3C00
ENDCHAR

STARTCHAR Ocircumflex
ENCODING 212
SWIDTH 778 0
DWIDTH 11 0
BBX 9 13 2 0
BITMAP
0C00
1200
0000
1E00
2100
4080
4080
8080
8080
8100
8100
4200
3C00
ENDCHAR

STARTCHAR Ohungarumlaut
ENCODING 213
SWIDTH 778 0
DWIDTH 11 0
BBX 9 13 2 0
BITMAP
0900
1200
0000
1E00
2100
4080
4080
8080
8080
8100
8100
4200
3C00
ENDCHAR

STARTCHAR Odieresis
ENCODING 214
SWIDTH 778 0
DWIDTH 11 0
BBX 9 12 2 0
BITMAP
0900
0000
1E00
2100
4080
4080
8080
8080
8100
8100
4200
3C00
ENDCHAR

STARTCHAR multiply
ENCODING 215
SWIDTH 584 0
DWIDTH 8 0
BBX 5 6 2 2
BITMAP
88
50
20
20
50
88
ENDCHAR

STARTCHAR Rcaron
ENCODING 216
SWIDTH 722 0
DWIDTH 10 0
BBX 9 13 1 0
BITMAP
0900
0600
0000
3F00
2080
2080
4100
7E00
4800
4400
8200
8200
8100
ENDCHAR

STARTCHAR Uring
ENCODING 217
SWIDTH 722 0
DWIDTH 10 0
BBX 9 13 1 0
BITMAP
0400
0A00
0400
2080
2080
2080
4100
4100
4100
8200
8200
8400
7800
ENDCHAR

STARTCHAR Uacute
ENCODING 218
SWIDTH 722 0
DWIDTH 10 0
BBX 9 13 1 0
BITMAP
0200
0400
0000
2080
2080
2080
4100
4100
4100
8200
8200
8400
7800
ENDCHAR

STARTCHAR Uhungarumlaut
ENCODING 219
SWIDTH 722 0
DWIDTH 10 0
BBX 9 13 1 0
BITMAP
0900
1200
0000
2080
2080
2080
4100
4100
4100
8200
8200
8400
7800
ENDCHAR

STARTCHAR Udieresis
ENCODING 220
SWIDTH 722 0
DWIDTH 10 0
BBX 9 12 1 0
BITMAP
0900
0000
2080
2080
2080
4100
4100
4100
8200
8200
8400
7800
ENDCHAR

STARTCHAR Yacute
ENCODING 221
SWIDTH 667 0
DWIDTH 9 0
BBX 8 13 2 0
BITMAP
04
08
00
81
42
44
24
28
10
10
20
20
20
ENDCHAR

STARTCHAR Tcommaaccent
ENCODING 222
SWIDTH 611 0
DWIDTH 8 0
BBX 7 13 2 -3
BITMAP
FE
10
10
20
20
20
20
40
40
40
00
40
80
ENDCHAR

STARTCHAR germandbls
ENCODING 223
SWIDTH 611 0
DWIDTH 9 0
BBX 7 10 1 0
BITMAP
1C
22
22
4C
48
4C
82
82
A6
9C
ENDCHAR

STARTCHAR racute
ENCODING 224
SWIDTH 333 0
DWIDTH 5 0
BBX 5 10 1 0
BITMAP
10
20
00
58
60
40
C0
80
80
80
ENDCHAR

STARTCHAR aacute
ENCODING 225
SWIDTH 556 0
DWIDTH 8 0
BBX 7 10 1 0
BITMAP
04
08
00
3C
42
02
7E
84
8C
76
ENDCHAR

STARTCHAR acircumflex
ENCODING 226
SWIDTH 556 0
DWIDTH 8 0
BBX 7 10 1 0
BITMAP
0C
12
00
3C
42
02
7E
84
8C
76
ENDCHAR

STARTCHAR abreve
ENCODING 227
SWIDTH 556 0
DWIDTH 8 0
BBX 7 10 1 0
BITMAP
22
1C
00
3C
42
02
7E
84
8C
76
ENDCHAR

STARTCHAR adieresis
ENCODING 228
SWIDTH 556 0
DWIDTH 8 0
BBX 7 9 1 0
BITMAP
12
00
3C
42
02
7E
84
8C
76
ENDCHAR

STARTCHAR lacute
ENCODING 229
SWIDTH 222 0
DWIDTH 3 0
BBX 4 13 1 0
BITMAP
10
20
00
20
20
20
40
40
40
40
80
80
80
ENDCHAR

STARTCHAR cacute
ENCODING 230
SWIDTH 500 0
DWIDTH 7 0
BBX 6 10 1 0
BITMAP
08
10
00
38
44
40
80
80
88
70
ENDCHAR

STARTCHAR ccedilla
ENCODING 231
SWIDTH 500 0
DWIDTH 7 0
BBX 6 10 1 -3
BITMAP
38
44
40
80
80
88
70
20
10
60
ENDCHAR

STARTCHAR ccaron
ENCODING 232
SWIDTH 500 0
DWIDTH 7 0
BBX 6 10 1 0
BITMAP
24
18
00
38
44
40
80
80
88
70
ENDCHAR

STARTCHAR eacute
ENCODING 233
SWIDTH 556 0
DWIDTH 8 0
BBX 7 10 1 0
BITMAP
04
08
00
3C
42
42
FC
80
84
78
ENDCHAR

STARTCHAR eogonek
ENCODING 234
SWIDTH 556 0
DWIDTH 8 0
BBX 7 9 1 -2
BITMAP
3C
42
42
FC
80
84
78
20
18
ENDCHAR

STARTCHAR edieresis
ENCODING 235
SWIDTH 556 0
DWIDTH 8 0
BBX 7 9 1 0
BITMAP
24
00
3C
42
42
FC
80
84
78
ENDCHAR

STARTCHAR ecaron
ENCODING 236
SWIDTH 556 0
DWIDTH 8 0
BBX 7 10 1 0
BITMAP
24
18
00
3C
42
42
FC
80
84
78
ENDCHAR

STARTCHAR iacute
ENCODING 237
SWIDTH 278 0
DWIDTH 3 0
BBX 3 10 1 0
BITMAP
20
40
00
40
40
40
40
80
80
80
ENDCHAR

STARTCHAR icircumflex
ENCODING 238
SWIDTH 278 0
DWIDTH 3 0
BBX 4 10 1 0
BITMAP
60
90
00
40
40
40
40
80
80
80
ENDCHAR

STARTCHAR dcaron
ENCODING 239
SWIDTH 625 0
DWIDTH 8 0
BBX 10 10 1 0
BITMAP
0140
0140
0280
3A00
4600
4200
8400
8400
8C00
7400
ENDCHAR

STARTCHAR dcroat
ENCODING 240
SWIDTH 556 0
DWIDTH 8 0
BBX 9 10 1 0
BITMAP
0100
0780
0200
3A00
4600
4200
8400
8400
8C00
7400
ENDCHAR

STARTCHAR nacute
ENCODING 241
SWIDTH 556 0
DWIDTH 8 0
BBX 7 10 1 0
BITMAP
04
08
00
5C
62
42
82
84
84
84
ENDCHAR

STARTCHAR ncaron
ENCODING 242
SWIDTH 556 0
DWIDTH 8 0
BBX 7 10 1 0
BITMAP
24
18
00
5C
62
42
82
84
84
84
ENDCHAR

STARTCHAR oacute
ENCODING 243
SWIDTH 556 0
DWIDTH 8 0
BBX 7 10 1 0
BITMAP
04
08
00
3C
42
42
82
84
84
78
ENDCHAR

STARTCHAR ocircumflex
ENCODING 244
SWIDTH 556 0
DWIDTH 8 0
BBX 7 10 1 0
BITMAP
0C
12
00
3C
42
42
82
84
84
78
ENDCHAR

STARTCHAR ohungarumlaut
ENCODING 245
SWIDTH 556 0
DWIDTH 8 0
BBX 7 10 1 0
BITMAP
12
24
00
3C
42
42
82
84
84
78
ENDCHAR

STARTCHAR odieresis
ENCODING 246
SWIDTH 556 0
DWIDTH 8 0
BBX 7 9 1 0
BITMAP
12
00
3C
42
42
82
84
84
78
ENDCHAR

STARTCHAR divide
ENCODING 247
SWIDTH 584 0
DWIDTH 8 0
BBX 7 5 1 2
BITMAP
10
00
FE
00
10
ENDCHAR

STARTCHAR rcaron
ENCODING 248
SWIDTH 333 0
DWIDTH 5 0
BBX 5 10 1 0
BITMAP
48
30
00
58
60
40
C0
80
80
80
ENDCHAR

STARTCHAR uring
ENCODING 249
SWIDTH 556 0
DWIDTH 8 0
BBX 7 11 1 0
BITMAP
08
14
08
00
42
42
42
84
84
8C
74
ENDCHAR

STARTCHAR uacute
ENCODING 250
SWIDTH 556 0
DWIDTH 8 0
BBX 7 10 1 0
BITMAP
04
08
00
42
42
42
84
84
8C
74
ENDCHAR

STARTCHAR uhungarumlaut
ENCODING 251
SWIDTH 556 0
DWIDTH 8 0
BBX 7 10 1 0
BITMAP
12
24
00
42
42
42
84
84
8C
74
ENDCHAR

STARTCHAR udieresis
ENCODING 252
SWIDTH 556 0
DWIDTH 8 0
BBX 7 9 1 0
BITMAP
24
00
42
42
42
84
84
8C
74
ENDCHAR

STARTCHAR yacute
ENCODING 253
SWIDTH 500 0
DWIDTH 7 0
BBX 7 13 0 -3
BITMAP
04
08
00
22
22
24
14
18
18
10
30
20
C0
ENDCHAR

STARTCHAR tcommaaccent
ENCODING 254
SWIDTH 278 0
DWIDTH 4 0
BBX 4 13 1 -3
BITMAP
20
20
20
F0
40
40
80
80
80
60
00
40
80
ENDCHAR

STARTCHAR dotaccent
ENCODING 255
SWIDTH 333 0
DWIDTH 5 0
BBX 1 1 3 8
BITMAP
80
ENDCHAR
ENDFONT
